<svg width="40" height="40" viewBox="0 0 40 40" fill="none" xmlns="http://www.w3.org/2000/svg">
<g clip-path="url(#clip0_17_118)">
<path d="M34.1063 5.89532C32.2546 4.03933 30.055 2.56683 27.6334 1.56213C25.2118 0.557438 22.6159 0.0402832 19.9942 0.0402832C17.3724 0.0402832 14.7765 0.557438 12.3549 1.56213C9.93333 2.56683 7.73372 4.03933 5.88204 5.89532C-1.82421 13.6016 -1.89842 26.0938 5.65861 33.8922L5.80392 34.0399L5.81642 34.0524L5.87892 34.1156L6.02501 34.2617C7.68338 35.8893 9.61347 37.2144 11.7281 38.1774L11.9305 38.268C12.0742 38.3313 12.2195 38.3938 12.3649 38.4539L12.5992 38.5484L12.8336 38.6406C13.0008 38.7052 13.1693 38.7672 13.3391 38.8266H13.3438C13.524 38.8906 13.7063 38.9516 13.8906 39.0094L14.1742 39.0977C14.4383 39.1784 14.7044 39.2531 14.9727 39.3219L15.2414 39.3891C15.3852 39.425 15.5289 39.4578 15.6735 39.4891C15.818 39.5203 15.9633 39.5516 16.1086 39.5797C16.2909 39.6156 16.4732 39.6487 16.6555 39.6789C16.7469 39.6945 16.8383 39.7094 16.9305 39.7234C17.0227 39.7375 17.1141 39.7508 17.2063 39.7633L17.4281 39.793C17.4985 39.8024 17.5688 39.8109 17.6399 39.8188H17.6594L17.8766 39.843L18.0953 39.8649L18.3188 39.8844C18.468 39.8969 18.6172 39.907 18.7672 39.9164L19.0438 39.9313H19.0703C19.1602 39.9352 19.2508 39.9391 19.3414 39.9414H19.3547H19.4164C19.4703 39.9414 19.5235 39.9414 19.5774 39.9453H19.6156C19.7406 39.9453 19.8664 39.9492 19.9922 39.9492H20C20.3255 39.9492 20.65 39.9412 20.9734 39.925C21.125 39.918 21.2758 39.9086 21.4266 39.8984H21.4695C21.5477 39.8922 21.6258 39.8867 21.7039 39.8797L21.9453 39.8578C22.1063 39.8422 22.2669 39.8247 22.4274 39.8055C22.5875 39.7859 22.7469 39.7641 22.9063 39.7414C23.0656 39.7188 23.225 39.693 23.3828 39.6633C23.4609 39.65 23.5391 39.6359 23.6172 39.6211C23.6953 39.6063 23.7734 39.5914 23.8516 39.5766L24.0859 39.5289L24.3391 39.4742L24.5336 39.4297C24.5524 39.4258 24.5719 39.4219 24.5906 39.4164H24.5992C24.6625 39.4024 24.7258 39.3867 24.7883 39.3711C24.8664 39.3524 24.9445 39.3328 25.0227 39.3125L25.257 39.2508C25.4133 39.2086 25.5667 39.1649 25.7172 39.1195C25.7953 39.0969 25.8734 39.0734 25.9461 39.0492C26.0188 39.025 26.0984 39.0016 26.1742 38.9766C26.25 38.9516 26.3258 38.9274 26.4016 38.8984C26.5521 38.8464 26.7024 38.7943 26.8524 38.7422L27.0766 38.6586C27.1547 38.6305 27.225 38.6016 27.2992 38.5727C27.4477 38.5141 27.5945 38.4539 27.7422 38.3922C27.8524 38.3461 27.9617 38.2984 28.0711 38.25C28.1805 38.2016 28.2883 38.1524 28.3969 38.1016L28.593 38.0094C28.6547 37.9805 28.7156 37.9508 28.7766 37.9203C28.8938 37.8625 29.0107 37.8037 29.1274 37.7438C30.8902 36.8301 32.5075 35.6598 33.9266 34.2711L33.9633 34.2414C34.0164 34.1977 34.0617 34.1524 34.1016 34.1125C34.1695 34.0445 34.2375 33.9758 34.3039 33.907L34.3133 33.8984L34.3391 33.8711C37.9832 30.1109 40.0014 25.0678 39.9576 19.8317C39.9137 14.5955 37.8113 9.58694 34.1047 5.88829L34.1063 5.89532ZM13.2399 8.51954C14.8039 6.95535 16.8619 5.98186 19.0633 5.76495C21.2646 5.54805 23.473 6.10114 25.3123 7.33C27.1515 8.55886 28.5078 10.3874 29.15 12.5042C29.7921 14.6209 29.6805 16.8948 28.834 18.9385C27.9876 20.9821 26.4587 22.669 24.5079 23.7118C22.5571 24.7545 20.3051 25.0886 18.1356 24.657C15.9661 24.2255 14.0133 23.0551 12.6101 21.3452C11.2068 19.6353 10.4398 17.4917 10.4399 15.2797C10.4363 14.0237 10.6819 12.7795 11.1625 11.6191C11.6432 10.4587 12.3492 9.40516 13.2399 8.51954V8.51954ZM7.24298 33.7977C7.29767 33.7336 7.35314 33.6695 7.40861 33.6063L7.42189 33.5938C7.42189 33.5938 7.42189 33.5938 7.42579 33.5899C7.44533 33.5672 7.46564 33.5438 7.48595 33.5219L7.60861 33.3859C7.65001 33.3406 7.69142 33.2953 7.73361 33.2508L7.75392 33.2289L7.76017 33.2219C7.80158 33.1766 7.84298 33.1328 7.88517 33.0891C7.94845 33.0227 8.01251 32.9563 8.07736 32.8914C8.1172 32.8508 8.15548 32.8133 8.19845 32.7711C8.24142 32.7289 8.27111 32.6977 8.30783 32.6633L8.35314 32.6188C8.39298 32.5805 8.43126 32.5406 8.47267 32.5055L8.48908 32.4899L8.49454 32.4844L8.51876 32.4617C8.56251 32.4195 8.60626 32.3789 8.65079 32.3391C8.67814 32.3133 8.70548 32.2875 8.73361 32.2609L8.75079 32.2461C8.7922 32.207 8.83517 32.168 8.87736 32.132L8.97345 32.0477C9.0172 32.0086 9.06173 31.9695 9.10626 31.9336L9.21876 31.8375C9.25704 31.8047 9.29689 31.7719 9.33595 31.7399C9.37501 31.7078 9.42345 31.668 9.46798 31.6328C9.50079 31.6055 9.53361 31.5789 9.5672 31.5547L9.58126 31.5438L9.60079 31.5281C9.63829 31.4977 9.67892 31.468 9.71486 31.4383L9.72345 31.432C9.75366 31.4076 9.78413 31.3841 9.81486 31.3617L9.83048 31.3492L9.92033 31.2813H9.92501L9.93439 31.2742C9.99064 31.2313 10.0469 31.1891 10.1039 31.1484C10.1188 31.1367 10.1344 31.125 10.15 31.1149C10.2086 31.0711 10.2672 31.0289 10.3266 30.9875L10.4281 30.9164L10.4414 30.9078L10.5711 30.818L10.586 30.807L10.6047 30.7945L10.6422 30.7703C10.707 30.7258 10.7719 30.6828 10.8375 30.6399C10.9031 30.5969 10.9633 30.5578 11.0274 30.518C11.0703 30.4906 11.1133 30.4633 11.157 30.4399L11.1805 30.425L11.3727 30.307C11.4508 30.2586 11.5352 30.2102 11.6172 30.1633L11.6453 30.1469H11.65C11.6961 30.1195 11.743 30.0938 11.7899 30.0688L11.8203 30.0524L11.8477 30.0367C11.8836 30.0164 11.9195 29.9961 11.9563 29.9766C12.011 29.9461 12.0656 29.9164 12.1211 29.8875L12.1992 29.8477L12.2102 29.8422L12.2492 29.8219L12.2742 29.8086C12.3336 29.7766 12.3945 29.7469 12.4539 29.7156L12.6656 29.6109L12.7742 29.5578H12.7813L12.8008 29.5484L12.8289 29.5352C12.8914 29.5047 12.9547 29.4758 13.018 29.4469L13.0602 29.4274C13.1383 29.3906 13.2211 29.3547 13.3024 29.3195L13.3547 29.2961L13.5485 29.2133H13.5547L13.7774 29.1227C13.7924 29.1156 13.8078 29.1094 13.8235 29.1039H13.8281L13.925 29.0664L14.0266 29.0274L14.1156 28.993C14.1938 28.9649 14.2672 28.9367 14.343 28.9102C14.3602 28.9029 14.3774 28.8966 14.3945 28.8914C14.461 28.8672 14.5281 28.8438 14.5953 28.8219C14.6344 28.8078 14.6735 28.7945 14.7133 28.782C14.7742 28.7609 14.836 28.7406 14.8977 28.7219L14.9758 28.6969L14.9953 28.6906L15.0086 28.6867C15.0867 28.6641 15.157 28.6406 15.232 28.6188L19.8727 34.9383L24.7899 28.625L24.886 28.6539C24.95 28.6727 25.0133 28.693 25.0766 28.7125L25.1609 28.7391L25.3172 28.7899L25.3641 28.8055L25.55 28.8695H25.557L25.6774 28.9117L25.7742 28.9477C25.8375 28.9703 25.9 28.9938 25.9633 29.018C26.0484 29.05 26.1328 29.0828 26.2172 29.1164L26.2547 29.1313L26.293 29.1469L26.3711 29.1781L26.3938 29.1875L26.4063 29.193L26.4266 29.2008C26.4695 29.2172 26.5133 29.2359 26.5555 29.2547C26.6219 29.282 26.686 29.3109 26.7516 29.3399L26.7711 29.3484L26.8047 29.3633L26.8633 29.3891L26.9211 29.4156C26.9313 29.4203 26.9422 29.4242 26.9524 29.4297L27.075 29.4859L27.0992 29.4977C27.1203 29.507 27.1414 29.5164 27.1625 29.5274H27.1664C27.2336 29.5594 27.3024 29.5914 27.3688 29.625L27.4406 29.6609L27.4586 29.6695C27.5141 29.6969 27.5695 29.7242 27.6242 29.7531L27.6539 29.7688H27.6594C27.6696 29.7734 27.6795 29.7786 27.6891 29.7844L27.7188 29.8L27.7438 29.8125L27.9242 29.9078L27.9891 29.943C28.0599 29.981 28.1302 30.0201 28.2 30.0602C28.2115 30.0658 28.2227 30.0721 28.2336 30.0789C28.3117 30.1234 28.3899 30.1688 28.468 30.2141C28.4828 30.2219 28.4969 30.2313 28.5117 30.2399L28.6938 30.3492C28.7375 30.3758 28.7813 30.4024 28.825 30.4274L28.8414 30.4375L28.9461 30.5031L28.957 30.5102H28.9641L29.0133 30.5414L29.0469 30.5633C29.1125 30.6047 29.1789 30.6477 29.2438 30.6914C29.2625 30.7034 29.2813 30.7159 29.3 30.7289C29.3521 30.7638 29.4042 30.7997 29.4563 30.8367L29.4641 30.8422C29.5047 30.8698 29.5453 30.8979 29.586 30.9266C29.6203 30.95 29.6555 30.9742 29.6899 31C29.7242 31.0258 29.7719 31.0578 29.8125 31.0875C29.8531 31.1172 29.9156 31.1656 29.9688 31.2L29.9891 31.2156L30.082 31.2852C30.1524 31.3375 30.2227 31.3914 30.2922 31.4461C30.3484 31.4891 30.4039 31.5328 30.4594 31.5774L30.5508 31.6508L30.711 31.7828C30.7328 31.8 30.7547 31.818 30.7758 31.8367C30.8227 31.8758 30.8695 31.9149 30.9156 31.9563L30.9281 31.9672H30.932L30.9375 31.9719L30.9914 32.018C31.0219 32.0438 31.0516 32.0711 31.082 32.0961L31.107 32.1188C31.161 32.1649 31.2149 32.2133 31.268 32.2617C31.3971 32.3779 31.524 32.4969 31.6485 32.6188C31.6901 32.6589 31.7315 32.6995 31.7727 32.7406C31.8235 32.7899 31.8734 32.8399 31.9234 32.8906C32.0651 33.0333 32.2039 33.1792 32.3399 33.3281C32.3485 33.3375 32.357 33.3461 32.3649 33.3555C32.4078 33.4024 32.4508 33.4492 32.493 33.4969L32.4977 33.5016L32.5422 33.5524C32.6094 33.6305 32.675 33.7039 32.7406 33.7805C25.6156 40.3977 14.3906 40.4039 7.24298 33.7977Z" fill="#656565"/>
<path d="M24.7484 28.5859L24.793 28.5992L19.8758 34.9125L15.2344 28.5937C15.2711 28.582 15.3086 28.571 15.3461 28.5609L15.4586 28.5289C15.5445 28.5046 15.6297 28.4812 15.7156 28.4585L15.8383 28.4265L15.8547 28.4226L15.9898 28.3882L16.125 28.3554L16.1648 28.346L16.2844 28.3179L16.4031 28.2914L16.457 28.2789H16.4734L16.5836 28.2554L16.6945 28.2328C16.7336 28.2239 16.7727 28.2161 16.8117 28.2093C16.8688 28.1976 16.9266 28.1867 16.9836 28.1765L17.0797 28.1585L17.2656 28.125L17.4047 28.1023L17.5438 28.0804L17.6453 28.0656L17.7477 28.0515H17.7664H17.7828H17.8023L17.9437 28.0335H17.9547H17.9734H17.993C18.0492 28.0265 18.1047 28.0195 18.1609 28.014C18.2172 28.0085 18.2766 28.0007 18.3344 27.9953L18.4375 27.9687C18.5063 27.9617 18.575 27.9562 18.6438 27.95L18.857 27.9343L19.0266 27.9234H19.0492H19.0852L19.2828 27.9132H19.3297H19.3414L19.5141 27.907H19.6102H19.7352H19.9195H20.0062C20.0953 27.907 20.1852 27.907 20.2742 27.907H20.3469C20.3781 27.907 20.4086 27.907 20.4398 27.907C20.5055 27.907 20.5711 27.907 20.6367 27.9132H20.6625C20.7203 27.9132 20.7789 27.9171 20.8367 27.9203H20.8422L21.0117 27.9304L21.0945 27.9351C21.1453 27.9351 21.1953 27.9414 21.2461 27.946H21.2609C21.3102 27.946 21.3602 27.9531 21.4094 27.9578H21.4164C21.4891 27.9632 21.5609 27.9703 21.6328 27.9773H21.6625L21.7406 27.9851L21.8492 27.9968H21.8797L22.0523 28.0164H22.0703L22.1016 28.0203L22.1734 28.0296L22.3453 28.0531L22.4633 28.0703L22.493 28.075L22.6328 28.0968L22.8672 28.1359C22.9453 28.1492 23.0164 28.1625 23.0906 28.1773C23.1875 28.196 23.2852 28.2148 23.382 28.2351C23.4789 28.2554 23.575 28.2765 23.6719 28.2984L23.9258 28.3585L24.0102 28.3796L24.0422 28.3875L24.1789 28.4234C24.2898 28.4523 24.4008 28.4828 24.5109 28.514C24.5938 28.5414 24.6711 28.5625 24.7484 28.5859Z" fill="white"/>
<path d="M34.343 33.8782L34.0141 33.4657C31.6658 30.5289 28.4541 28.4041 24.8328 27.3914C23.2636 26.9443 21.6395 26.7192 20.0078 26.7227H19.9508C18.4208 26.7274 16.8978 26.9296 15.4195 27.3243C15.1117 27.4055 14.8065 27.4948 14.5039 27.5922C11.1502 28.6792 8.18932 30.7266 5.98829 33.4805L5.66095 33.8914L5.80861 34.036L5.82111 34.0485L6.03595 34.2579C7.69247 35.8837 9.61943 37.2087 11.7305 38.1735L11.9328 38.2641C12.0766 38.3274 12.2219 38.3899 12.3672 38.45L12.6016 38.5446L12.836 38.6368C13.0039 38.7008 13.1719 38.7633 13.3414 38.8227H13.3461C13.5274 38.886 13.7086 38.9469 13.893 39.0055L14.1766 39.0938C14.4406 39.1735 14.7068 39.2482 14.975 39.318L15.2438 39.3852C15.3875 39.4196 15.5315 39.4529 15.6758 39.4852C15.8201 39.5175 15.9651 39.5477 16.111 39.5758C16.2932 39.6118 16.4755 39.6448 16.6578 39.675C16.7492 39.6907 16.8406 39.7055 16.9328 39.7196C17.025 39.7336 17.1164 39.7469 17.2086 39.7594L17.4305 39.7891C17.5008 39.7985 17.5711 39.8071 17.6422 39.8149H17.6617L17.8789 39.8391L18.0977 39.861L18.3211 39.8805C18.4703 39.893 18.6195 39.9032 18.7695 39.9125L19.0461 39.9274H19.0727C19.1625 39.9313 19.2531 39.9352 19.3438 39.9375H19.357H19.4188C19.4727 39.9375 19.5258 39.9375 19.5797 39.9414H19.618C19.743 39.9414 19.8688 39.9454 19.9945 39.9454H20.0024C20.3279 39.9454 20.6524 39.9373 20.9758 39.9211C21.1274 39.9149 21.2781 39.9055 21.4289 39.8946H21.4719C21.55 39.8883 21.6281 39.8829 21.7063 39.8758L21.9477 39.8539C22.1086 39.8391 22.2695 39.8211 22.4297 39.8016C22.5899 39.7821 22.7492 39.7602 22.9086 39.7375C23.068 39.7149 23.2274 39.6891 23.3852 39.6594C23.4633 39.6461 23.5414 39.6321 23.6195 39.6172C23.6977 39.6024 23.7758 39.5875 23.8539 39.5727L24.0883 39.525L24.3414 39.4704L24.536 39.4258C24.5547 39.4219 24.5742 39.418 24.593 39.4125H24.6016C24.6649 39.3985 24.7281 39.3829 24.7906 39.3672C24.8688 39.3485 24.9469 39.3289 25.025 39.3086L25.2594 39.2469C25.4156 39.2063 25.569 39.1625 25.7195 39.1157C25.7977 39.093 25.8758 39.0696 25.9485 39.0454C26.0211 39.0211 26.1008 38.9977 26.1766 38.9727C26.2524 38.9477 26.3281 38.9235 26.4039 38.8946C26.5547 38.8446 26.7055 38.7914 26.8547 38.7383L27.0789 38.6547C27.157 38.6266 27.2274 38.5977 27.3016 38.5688C27.45 38.5102 27.5969 38.45 27.7445 38.3883C27.8547 38.3422 27.9641 38.2946 28.0735 38.2461C28.1828 38.1977 28.2906 38.1485 28.3992 38.0977L28.5953 38.0055C28.657 37.9766 28.718 37.9469 28.7789 37.9164C28.8961 37.8586 29.013 37.7998 29.1297 37.7399C30.9083 36.8217 32.5385 35.641 33.9656 34.2375L34.3063 33.9032L34.3156 33.8946L34.3422 33.868L34.343 33.8782ZM7.24298 33.8C7.29767 33.736 7.35314 33.6719 7.40861 33.6086L7.42189 33.5938C7.42189 33.5938 7.42189 33.5938 7.42579 33.5899C7.44533 33.5672 7.46564 33.5438 7.48595 33.5219L7.60861 33.386C7.65001 33.3407 7.69142 33.2954 7.73361 33.2508L7.75392 33.2289L7.76017 33.2219C7.80157 33.1766 7.84298 33.1329 7.88517 33.0891C7.94845 33.0227 8.01251 32.9563 8.07736 32.8914C8.1172 32.8508 8.15548 32.8133 8.19845 32.7711C8.24142 32.7289 8.27111 32.6977 8.30782 32.6633L8.35314 32.6188C8.39298 32.5805 8.43126 32.5407 8.47267 32.5055L8.48908 32.4899L8.49454 32.4844L8.51876 32.4618C8.56251 32.4196 8.60626 32.3789 8.65079 32.3391C8.67814 32.3133 8.70548 32.2875 8.73361 32.261L8.75079 32.2461C8.7922 32.2071 8.83517 32.168 8.87736 32.1321L8.97345 32.0477C9.0172 32.0086 9.06173 31.9696 9.10626 31.9336L9.21876 31.8375C9.25704 31.8047 9.29689 31.7719 9.33595 31.7399C9.37501 31.7079 9.42345 31.668 9.46798 31.6329C9.50079 31.6055 9.53361 31.5789 9.5672 31.5547L9.58126 31.5438L9.60079 31.5282C9.63829 31.4977 9.67892 31.468 9.71486 31.4383L9.72345 31.4321C9.75366 31.4076 9.78413 31.3842 9.81486 31.3618L9.83048 31.3493L9.92033 31.2813H9.92501L9.93439 31.2743C9.99064 31.2313 10.0469 31.1891 10.1039 31.1485C10.1188 31.1368 10.1344 31.125 10.15 31.1149C10.2086 31.0711 10.2672 31.0289 10.3266 30.9875L10.4281 30.9164L10.4414 30.9079L10.5711 30.818L10.5859 30.8071L10.6047 30.7946L10.6422 30.7704C10.707 30.7258 10.7719 30.6829 10.8375 30.6399C10.9031 30.5969 10.9633 30.5579 11.0274 30.518C11.0703 30.4907 11.1133 30.4633 11.157 30.4399L11.1805 30.425L11.3727 30.3071C11.4508 30.2586 11.5352 30.2102 11.6172 30.1633L11.6453 30.1469H11.65C11.6961 30.1196 11.743 30.0938 11.7899 30.0688L11.8203 30.0524L11.8477 30.0368C11.8836 30.0164 11.9195 29.9961 11.9563 29.9766C12.0109 29.9461 12.0656 29.9164 12.1211 29.8875L12.1992 29.8477L12.2102 29.8422L12.2492 29.8219L12.2742 29.8086C12.3336 29.7766 12.3945 29.7469 12.4539 29.7157L12.6656 29.611L12.7742 29.5579H12.7813L12.8008 29.5485L12.8289 29.5352C12.8914 29.5047 12.9547 29.4758 13.018 29.4469L13.0602 29.4274C13.1383 29.3907 13.2211 29.3547 13.3024 29.3196L13.3547 29.2961L13.5484 29.2133H13.5547L13.7774 29.1227C13.7924 29.1156 13.8078 29.1094 13.8234 29.1039H13.8281L13.925 29.0664L14.0266 29.0274L14.1156 28.993C14.1938 28.9649 14.2672 28.9368 14.343 28.9102C14.3602 28.9029 14.3774 28.8967 14.3945 28.8914C14.4609 28.8672 14.5281 28.8438 14.5953 28.8219C14.6344 28.8079 14.6734 28.7946 14.7133 28.7821C14.7742 28.761 14.8359 28.7407 14.8977 28.7219L14.9758 28.6969L14.9953 28.6907L15.0086 28.6868C15.0867 28.6641 15.157 28.6407 15.232 28.6188C15.2688 28.6071 15.3063 28.5961 15.3438 28.586L15.4563 28.5539C15.5422 28.5297 15.6274 28.5063 15.7133 28.4836L15.8359 28.4516L15.8524 28.4477L15.9875 28.4133L16.1227 28.3805L16.1625 28.3711L16.282 28.343L16.4008 28.3164L16.4547 28.3039H16.4711L16.5813 28.2805L16.6922 28.2579C16.7313 28.249 16.7703 28.2412 16.8094 28.2344C16.8664 28.2227 16.9242 28.2118 16.9813 28.2016L17.0774 28.1836L17.2656 28.125L17.4047 28.1024L17.5438 28.0805L17.6453 28.0657L17.7477 28.0516H17.7664H17.7828H17.8024L17.9438 28.0336H17.9547H17.9735H17.993C18.0492 28.0266 18.1047 28.0196 18.1609 28.0141C18.2172 28.0086 18.2766 28.0008 18.3344 27.9954L18.4375 27.9688C18.5063 27.9618 18.575 27.9563 18.6438 27.95L18.857 27.9344L19.0266 27.9235H19.0492H19.0852L19.2828 27.9133H19.3297H19.3414L19.5141 27.9071H19.6102H19.7352H19.9195H20.0063C20.0953 27.9071 20.1852 27.9071 20.2742 27.9071H20.3469C20.3781 27.9071 20.4086 27.9071 20.4399 27.9071C20.5055 27.9071 20.5711 27.9071 20.6367 27.9133H20.6625C20.7211 27.9133 20.7789 27.918 20.8367 27.9204H20.8422L21.0117 27.9305L21.0945 27.9352C21.1453 27.9352 21.1953 27.9414 21.2461 27.9461H21.261L21.4094 27.9579H21.4164C21.4891 27.9633 21.5609 27.9704 21.6328 27.9774H21.6625L21.7406 27.9852L21.8492 27.9969H21.8797L22.0524 28.0164H22.0703L22.1016 28.0204L22.1735 28.0297L22.3453 28.0532L22.4633 28.0704L22.493 28.075L22.6328 28.0969L22.8672 28.136C22.9414 28.1493 23.0164 28.1625 23.0906 28.1774C23.1875 28.1961 23.2852 28.2149 23.382 28.2352C23.4789 28.2555 23.575 28.2766 23.6719 28.2985L23.9258 28.3586L24.0102 28.3797L24.0422 28.3875L24.1789 28.4235C24.2899 28.4524 24.4008 28.4829 24.5109 28.5141C24.5891 28.536 24.6672 28.5571 24.7453 28.5805L24.7899 28.5938L24.886 28.6227C24.95 28.6414 25.0133 28.6618 25.0766 28.6813L25.161 28.7079L25.3172 28.7586L25.3641 28.7743L25.55 28.8383H25.557L25.6774 28.8805L25.7742 28.9164C25.8375 28.9391 25.9 28.9625 25.9633 28.9868C26.0484 29.0188 26.1328 29.0516 26.2172 29.0852L26.2547 29.1L26.293 29.1157L26.3711 29.1469L26.3938 29.1563L26.4063 29.1618L26.4266 29.1696C26.4695 29.186 26.5133 29.2047 26.5555 29.2235C26.6219 29.2508 26.686 29.2797 26.7516 29.3086L26.7711 29.3172L26.8047 29.3321L26.8633 29.3579L26.9211 29.3844C26.9313 29.3891 26.9422 29.393 26.9524 29.3985L27.075 29.4547L27.0992 29.4664C27.1203 29.4758 27.1414 29.4852 27.1625 29.4961H27.1664C27.2336 29.5282 27.3024 29.5602 27.3688 29.5938L27.4406 29.6297L27.4586 29.6383C27.5141 29.6657 27.5695 29.693 27.6242 29.7219L27.6539 29.7375H27.6594C27.6696 29.7421 27.6795 29.7474 27.6891 29.7532L27.7188 29.7688L27.7438 29.7813C27.8039 29.8118 27.8649 29.8446 27.9242 29.8766L27.9891 29.9118C28.0599 29.9498 28.1302 29.9888 28.2 30.0289C28.2115 30.0346 28.2228 30.0409 28.2336 30.0477C28.3117 30.0914 28.3899 30.1368 28.468 30.1829C28.4828 30.1907 28.4969 30.2 28.5117 30.2086C28.5727 30.2446 28.6336 30.2805 28.6938 30.318C28.7375 30.3446 28.7813 30.3711 28.825 30.3961L28.8414 30.4063L28.9461 30.4719L28.957 30.4789H28.9641L29.0133 30.5102L29.0469 30.5321C29.1125 30.5735 29.1789 30.6164 29.2438 30.6602C29.2625 30.6722 29.2813 30.6847 29.3 30.6977C29.3539 30.7329 29.4063 30.7688 29.4563 30.8055L29.4641 30.811C29.5047 30.8386 29.5453 30.8667 29.586 30.8954C29.6203 30.9188 29.6555 30.943 29.6899 30.9688C29.7242 30.9946 29.7719 31.0266 29.8125 31.0563C29.8531 31.086 29.9156 31.1344 29.9688 31.1688L29.9891 31.1844L30.082 31.2539C30.1524 31.3063 30.2227 31.3602 30.2922 31.4149C30.3484 31.4579 30.4039 31.5016 30.4594 31.5461L30.5508 31.6196L30.711 31.7516C30.7328 31.7688 30.7547 31.7868 30.7758 31.8055C30.8234 31.8446 30.8695 31.8836 30.9156 31.925L30.9281 31.936H30.932L30.9375 31.9407L30.9914 31.9868C31.0219 32.0125 31.0516 32.0399 31.082 32.0649L31.107 32.0875C31.161 32.1336 31.2149 32.1821 31.268 32.2305C31.3971 32.3467 31.524 32.4657 31.6485 32.5875C31.6901 32.6276 31.7315 32.6683 31.7727 32.7094C31.8235 32.7586 31.8734 32.8086 31.9234 32.8594C32.0651 33.0021 32.2039 33.148 32.3399 33.2969C32.3485 33.3063 32.357 33.3149 32.3649 33.3243C32.4078 33.3711 32.4508 33.418 32.493 33.4657L32.4977 33.4704L32.5422 33.5211C32.6094 33.5993 32.675 33.6727 32.7406 33.7493C25.6156 40.3977 14.3906 40.4039 7.24298 33.7977V33.8Z" fill="#656565"/>
<path d="M24.5531 27.9548L19.8898 33.9415L15.4469 27.8907C16.896 27.5043 18.3893 27.3084 19.8891 27.3079C21.4664 27.304 23.0364 27.5218 24.5531 27.9548V27.9548Z" fill="#656565"/>
<path d="M24.7149 27.3914C23.1648 26.9494 21.561 26.7246 19.9492 26.7234H19.8883C18.3373 26.7238 16.7931 26.9266 15.2945 27.3265L14.4656 27.5476L14.4992 27.5937L15.2344 28.5937L19.875 34.9132L24.7922 28.6L25.5469 27.6312L24.7149 27.3914ZM16.4422 28.2562C17.5757 28.0161 18.7312 27.8949 19.8899 27.8945H19.9563C21.1625 27.8967 22.3649 28.0322 23.5414 28.2984L19.9031 32.9687L16.4586 28.2812L16.4422 28.2562Z" fill="#656565"/>
</g>
<defs>
<clipPath id="clip0_17_118">
<rect width="40" height="40" fill="white"/>
</clipPath>
</defs>
</svg>
